<?xml version="1.0" standalone="no"?>
<!DOCTYPE svg PUBLIC "-//W3C//DTD SVG 20010904//EN"
 "http://www.w3.org/TR/2001/REC-SVG-20010904/DTD/svg10.dtd">
<svg version="1.0" xmlns="http://www.w3.org/2000/svg"
 width="16.000000pt" height="16.000000pt" viewBox="0 0 16.000000 16.000000"
 preserveAspectRatio="xMidYMid meet">
<metadata>
Created by potrace 1.11, written by Peter Selinger 2001-2013
</metadata>
<g transform="translate(0.000000,16.000000) scale(0.003524,-0.003524)"
fill="#000000" stroke="none">
<path d="M2016 4304 c-3 -8 -6 -693 -6 -1522 -1 -1445 -2 -1511 -20 -1612 -11
-58 -31 -136 -45 -174 -14 -38 -25 -70 -25 -71 0 -1 -424 -1 -942 -1 -519 1
-950 0 -960 -2 -13 -3 -16 -16 -16 -63 1 -53 3 -59 22 -60 11 0 427 -1 923 -1
661 -1 901 -4 896 -12 -56 -95 -173 -200 -280 -250 l-62 -29 82 -96 c45 -53
87 -102 94 -109 7 -7 18 -21 25 -30 32 -43 42 -44 114 -17 237 89 429 259 543
481 l31 61 1058 1 c581 0 1064 1 1073 1 13 1 17 12 17 59 0 31 -4 59 -8 62 -5
3 -474 5 -1044 4 -570 0 -1036 3 -1036 8 0 4 11 50 24 101 50 193 50 166 51
1762 1 944 -2 1505 -8 1513 -7 9 -70 12 -252 12 -211 0 -244 -2 -249 -16z"/>
</g>
</svg>
